PathFileType	4	(X/Y/Z)	Patient4_TMGait_0pt7_01_left_19.trc.trc
DataRate	CameraRate	NumFrames	NumMarkers	Units	OrigDataRate	OrigDataStartFrame	OrigNumFrames
86.419753086420	86.419753086420	4	33	mm	86.419753086420	71	       141
Frame#	Time	Sacral			L.Shoulder			Chest			R.Shoulder			Neck			R.ASIS			L.ASIS			R.Thigh.Superior			R.Thigh.Lateral			R.Thigh.Inferior			R.Patella			L.Thigh.Superior			L.Thigh.Lateral			L.Thigh.Inferior			L.Patella			L.Shank.Superior			L.Shank.Lateral			L.Shank.Inferior			R.Shank.Superior			R.Shank.Lateral			R.Shank.Inferior			R.Heel			R.Midfoot.Superior			R.Midfoot.Lateral			R.Toe			L.Heel			L.Midfoot.Lateral			L.Midfoot.Superior			L.Toe			L.Elbow			L.Wrist			R.Elbow			R.Wrist			
		X1	Y1	Z1	X2	Y2	Z2	X3	Y3	Z3	X4	Y4	Z4	X5	Y5	Z5	X6	Y6	Z6	X7	Y7	Z7	X8	Y8	Z8	X9	Y9	Z9	X10	Y10	Z10	X11	Y11	Z11	X12	Y12	Z12	X13	Y13	Z13	X14	Y14	Z14	X15	Y15	Z15	X16	Y16	Z16	X17	Y17	Z17	X18	Y18	Z18	X19	Y19	Z19	X20	Y20	Z20	X21	Y21	Z21	X22	Y22	Z22	X23	Y23	Z23	X24	Y24	Z24	X25	Y25	Z25	X26	Y26	Z26	X27	Y27	Z27	X28	Y28	Z28	X29	Y29	Z29	X30	Y30	Z30	X31	Y31	Z31	X32	Y32	Z32	X33	Y33	Z33	

71	22.610000000000	847.341436789932	994.989940762526	433.368298340341	1043.586022356028	1425.215238513014	261.267357603065	1134.455871565742	1349.068105821568	426.919896544450	1044.646359730355	1428.554396264615	594.953576528560	1040.208732745065	1483.439740875117	414.373448784572	1073.506241861620	935.050065330139	555.949410980743	1064.699614667806	955.286006168445	276.843271204148	1154.003774975509	772.260298272369	524.410781288417	1122.566216507703	648.092007821127	603.084010710092	1209.639799108160	615.132442805496	519.948290734720	1249.546582613955	532.427109075722	537.728112061232	1061.664914477061	727.336413426336	306.501487074565	939.900437765796	636.311352574817	246.811676255291	997.310928010775	540.677443779292	309.716619450765	980.602306270231	475.573384162306	320.370249338754	946.864544246639	410.019701999084	313.580258503120	843.516584296392	307.059207309099	266.396458962543	880.423616570494	191.608411519529	339.764798065409	1234.921319333978	442.391977907369	549.302283880948	1186.567050547164	329.238025820557	617.804523607310	1253.362577533034	242.703898558209	563.567370833930	1159.470162037363	55.879352043810	541.950736961924	1324.852945102052	128.919955188152	575.227897907248	1247.641473877799	52.174595292527	609.889356453876	1449.916263730949	89.392840626451	593.109567139227	738.628811203518	42.645704172795	383.504820551527	811.790545813559	37.234425283084	303.209345849247	896.521906660177	96.064475194680	328.684960742997	1023.424320064507	39.816353998280	299.002419196503	1132.292590717422	1116.043670575646	104.698874608599	1376.601591250354	1136.540358328977	170.024149566912	881.221572232409	1132.073966337832	714.920409149074	835.881384547079	873.036190493349	712.417951708369	
72	22.621571428571	849.371744766570	992.848608773900	434.982930526579	1044.462818190277	1423.359314039986	262.878591914881	1135.605571772908	1347.294458088970	428.395376553264	1045.793097136093	1426.697295599940	596.445577423590	1041.190737806150	1481.458728909450	415.849811359634	1075.647458617282	932.658010901375	557.371529243561	1066.463850209150	953.348113845466	278.422823737990	1154.419818393412	768.110809084499	525.811771805728	1120.810546421527	643.943717821185	603.869592341270	1207.674626743731	610.648348013172	520.739628415637	1246.485990553022	528.902454219776	537.736409420224	1061.182467315863	724.973539761575	307.669546397245	938.290978272711	635.390413196779	247.664263789405	994.324836436064	539.080224634989	310.762114917089	976.754575639849	473.966421849833	321.305546162862	942.298036119182	408.832746546735	314.311624914265	837.914269190688	307.034035146325	266.814693672759	873.387029111530	191.121637426202	340.047993769669	1233.751281972891	438.868623126212	549.407601645009	1187.107481684448	324.345380423882	616.739974963782	1256.143962185255	239.480006290153	562.438941993067	1166.215843199983	51.036558633809	539.035275886945	1329.984477885907	126.837432151731	573.671881206466	1253.876959689977	49.082375222693	607.728725668629	1455.756285786126	89.723078874009	592.766391133305	730.457579869417	42.832106718452	383.445777230573	803.675725873161	37.310423640295	303.170698444508	888.451630492232	96.070578027636	328.715348137222	1015.306530411307	39.700678138299	298.942494364866	1135.261676143214	1116.080510013091	104.865421461976	1377.550759256027	1145.463575009779	172.478930570008	877.829557774579	1133.580606781993	715.977925489843	827.748314528264	875.435508911977	712.782325753910	
73	22.633142857143	851.510771588948	990.630686491275	436.824067234558	1045.314355112412	1421.431300918953	264.594565924232	1136.798686912550	1345.526614243073	429.989168130420	1046.947303937873	1424.798245594575	598.071695825472	1042.152974741617	1479.453671893555	417.450434811413	1077.935985659250	930.214713976377	558.969314136575	1068.299556611700	951.314904104294	280.407244983636	1155.377345780049	764.250001918763	527.394417099864	1119.548986808714	639.961887928084	604.499366827809	1206.469829937123	606.544175520215	521.665414626281	1243.881777191598	525.232751396553	537.858915736255	1061.154113348907	722.607061780715	309.008419292432	937.244793986650	634.350421687934	248.715387076714	992.013292419520	537.390843516877	311.967717573567	973.588645928417	472.152652369555	322.426263622823	938.320051614367	407.455559658130	315.172944727237	832.726221274615	307.021479537791	267.296443960210	866.522401571974	190.565390399076	340.324104539063	1232.391376645569	435.082491440835	549.420555183354	1186.364659884318	319.644291575422	615.373316113652	1256.843719449440	235.957275002972	561.081441862398	1169.043761462482	47.336547224351	535.938635846050	1331.890406867133	123.944865407481	571.743183616178	1256.092073415873	46.253080880170	605.363486100861	1457.850404172067	87.836700289995	591.990200291174	722.267894892565	43.099279402760	383.329170806198	795.570051067477	37.371996450204	303.094302399412	880.420023963434	96.078344262204	328.694030974138	1007.224222042196	39.577759487460	298.868237685793	1137.602920970031	1115.634290661332	105.289435762853	1377.779630406018	1153.055137921616	174.908794160803	875.271623834379	1134.504392152069	717.095953885565	821.228901482574	877.105397465282	713.466392276275	
74	22.644714285714	853.721480563969	988.425360415943	438.872617922734	1046.172048359494	1419.489429909243	266.414121024726	1138.056174582404	1343.813087925237	431.703045537773	1048.136027038557	1422.909998539675	599.835665430378	1043.135200546557	1477.492615114899	419.184495675876	1080.339772131557	927.802715082830	560.740253788984	1070.204357083315	949.254559867885	282.729341989505	1156.877127822243	760.754778410806	529.157301981331	1118.760454846738	636.233935531564	604.960902277081	1206.024246120919	602.893936243681	522.715973750085	1241.786503361217	521.527468662014	538.031084739486	1061.580778212780	720.309000807169	310.485275694733	936.755878056207	633.224900784935	249.972515038519	990.430780424009	535.639573941133	313.300463182997	971.189028931799	470.142706200302	323.682416608720	934.981484886260	405.911505777180	316.138117683842	827.975555805701	307.070762644958	267.843352945342	859.868731601081	189.981662816737	340.569813211882	1230.942503438305	431.165916369687	549.305071367737	1184.621148162356	315.219284226473	613.838043626479	1255.744933035777	232.205453306729	559.551334082582	1168.306049304442	44.641576863269	532.923125240112	1330.955837254707	120.367651237473	569.521113500877	1254.745806706537	43.702373641239	602.997205165791	1456.694333049087	83.985082115517	590.782489430383	714.074762252444	43.526461733419	383.144565043382	787.480880811278	37.446225384367	302.975408026398	872.464181946025	96.090868439022	328.595873466191	999.182889525806	39.447034323901	298.779786823660	1139.286805637169	1114.694026758350	106.006956205102	1377.384204298008	1159.231132760747	177.305888098735	873.653693511451	1134.773440740959	718.295451062791	816.395338158888	877.962359198735	714.457568575556	
